<svg width="94" height="24" viewBox="0 0 94 24" fill="none" xmlns="http://www.w3.org/2000/svg">
<g clip-path="url(#clip0_2169_50870)">
<path d="M90.4979 21.6272C90.4979 17.0423 86.7683 13.3135 82.1825 13.3135C77.5968 13.3135 73.8672 17.0423 73.8672 21.6272H76.9274C76.9274 18.7297 79.2845 16.3731 82.1825 16.3731C85.0806 16.3731 87.4377 18.7297 87.4377 21.6272H90.4979Z" fill="#FFB900"/>
<path d="M82.1854 16.3733C78.6089 16.3733 75.6992 13.4641 75.6992 9.88831C75.6992 6.31249 78.6089 3.40332 82.1854 3.40332C85.762 3.40332 88.6717 6.31249 88.6717 9.88831C88.6717 13.4641 85.762 16.3733 82.1854 16.3733ZM82.1854 6.46294C80.2967 6.46294 78.7594 7.99988 78.7594 9.88831C78.7594 11.7767 80.2967 13.3137 82.1854 13.3137C84.0742 13.3137 85.6115 11.7767 85.6115 9.88831C85.6115 7.99988 84.0742 6.46294 82.1854 6.46294Z" fill="#FC642D"/>
<path d="M19.5878 18.2024C16.0113 18.2024 13.1016 15.2932 13.1016 11.7174C13.1016 8.14159 16.0113 5.23242 19.5878 5.23242C23.1643 5.23242 26.074 8.14159 26.074 11.7174C26.074 15.2932 23.1643 18.2024 19.5878 18.2024ZM19.5878 8.29074C17.699 8.29074 16.1618 9.82769 16.1618 11.7161C16.1618 13.6045 17.699 15.1415 19.5878 15.1415C21.4766 15.1415 23.0138 13.6045 23.0138 11.7161C23.0138 9.82769 21.4766 8.29074 19.5878 8.29074Z" fill="#FC642D"/>
<path d="M48.2596 0.604492V5.23089H51.3574V8.29051H48.2596V14.1944C48.2596 14.7171 48.6851 15.1425 49.2079 15.1425H51.3574V18.2022H49.2079C46.9974 18.2022 45.1994 16.4045 45.1994 14.1944V8.29051H42.1016V5.23089H45.1994V0.604492H48.2596Z" fill="#FC642D"/>
<path d="M40.574 18.2024V11.7174C40.574 8.14159 37.6643 5.23242 34.0878 5.23242C30.5113 5.23242 27.6016 8.14159 27.6016 11.7174V18.2024H30.6618V11.7174C30.6618 9.82898 32.199 8.29204 34.0878 8.29204C35.9766 8.29204 37.5138 9.82898 37.5138 11.7174V18.2024H40.574Z" fill="#FC642D"/>
<path d="M62.2793 21.8742C63.4053 22.7147 64.7454 23.1582 66.1542 23.1582C69.7307 23.1582 72.6404 20.2491 72.6404 16.6732V11.7174C72.6404 8.14159 69.7307 5.23242 66.1542 5.23242C62.5777 5.23242 59.668 8.14159 59.668 11.7174C59.668 15.2932 62.5777 18.2024 66.1542 18.2024C67.3892 18.2024 68.5437 17.8548 69.527 17.2543C69.2494 18.8665 67.8445 20.0986 66.1542 20.0986C65.4096 20.0986 64.7026 19.8652 64.1084 19.4216L62.2793 21.8742ZM66.1542 15.1428C64.2654 15.1428 62.7282 13.6058 62.7282 11.7174C62.7282 9.82898 64.2654 8.29204 66.1542 8.29204C68.043 8.29204 69.5802 9.82898 69.5802 11.7174C69.5802 13.6058 68.043 15.1428 66.1542 15.1428Z" fill="#FC642D"/>
<path d="M11.5691 16.3016C10.3043 17.5662 8.64378 18.1979 6.98331 18.1979C5.32284 18.1979 3.66106 17.5649 2.39625 16.3016C-0.132083 13.7725 -0.132083 9.65842 2.39625 7.13057C3.62085 5.9062 5.25019 5.23047 6.98331 5.23047C8.71643 5.23047 10.3445 5.90491 11.5704 7.13057L9.40657 9.29396C8.75924 8.64676 7.89917 8.29009 6.98461 8.29009C6.07005 8.29009 5.20868 8.64676 4.56135 9.29396C3.22519 10.6299 3.22519 12.8036 4.56135 14.1396C5.89752 15.4755 8.0704 15.4755 9.40657 14.1396L11.5704 16.3029L11.5691 16.3016Z" fill="#FC642D"/>
<path d="M57.8063 5.23242H54.7461V18.2024H57.8063V5.23242Z" fill="#FC642D"/>
<path d="M56.5752 3.96708C57.5886 3.80261 58.2768 2.84791 58.1123 1.8347C57.9478 0.821485 56.9929 0.13344 55.9795 0.297907C54.9661 0.462375 54.2779 1.41708 54.4424 2.43029C54.6069 3.4435 55.5618 4.13155 56.5752 3.96708Z" fill="#FC642D"/>
</g>
<defs>
<clipPath id="clip0_2169_50870">
<rect width="93" height="24" fill="white" transform="translate(0.5)"/>
</clipPath>
</defs>
</svg>
